<?xml version="1.0" encoding="UTF-8"?>
<svg id="imagotipo" xmlns="http://www.w3.org/2000/svg" viewBox="0 0 611.68 114.42">
  <defs>
    <style>
      .cls-1 {
        fill: #00b0f2;
      }

      .cls-1, .cls-2, .cls-3 {
        fill-rule: evenodd;
      }

      .cls-2 {
        fill: #00e2e7;
      }

      .cls-3 {
        fill: #0076bf;
      }

      .cls-4 {
        fill: #1d1d1b;
      }
    </style>
  </defs>
  <path id="_xA9_" class="cls-4" d="M608.53,51.4c.98-.58,1.75-1.37,2.31-2.38.56-1.01.84-2.13.84-3.37s-.28-2.35-.84-3.34c-.56-.99-1.33-1.77-2.32-2.35-.99-.58-2.13-.87-3.4-.87s-2.41.29-3.39.87c-.98.58-1.75,1.36-2.29,2.35-.55.99-.82,2.11-.82,3.34s.28,2.36.84,3.36c.56,1,1.33,1.8,2.32,2.38.99.59,2.11.88,3.37.88s2.41-.29,3.39-.87ZM604.09,49.03v-6.93h-1.14v6.93h1.14ZM608.17,49.03l-2.52-3.03h-1.35l2.43,3.03h1.44ZM602.25,50.56c-.83-.5-1.48-1.18-1.95-2.04-.47-.86-.7-1.82-.7-2.88s.23-2.01.7-2.85c.47-.84,1.12-1.51,1.95-2.01.83-.5,1.78-.75,2.86-.75s2.06.25,2.89.75c.83.5,1.48,1.17,1.96,2.01s.72,1.79.72,2.85-.24,2.02-.72,2.88c-.48.86-1.14,1.54-1.96,2.04-.83.5-1.8.75-2.89.75s-2.04-.25-2.86-.75ZM605.53,46.09c.64,0,1.16-.18,1.57-.54.41-.36.61-.85.61-1.47,0-.58-.21-1.05-.61-1.42-.41-.37-.94-.55-1.57-.55h-1.83v.99h1.77c.34,0,.61.1.81.3.2.2.3.44.3.72,0,.32-.1.57-.3.75-.2.18-.47.27-.81.27h-1.77v.96h1.83Z"/>
  <path id="r" class="cls-4" d="M555.18,103.45v-63.45h-9.45v63.45h9.45ZM559.77,52.36c3.06-3.19,7.02-4.79,11.88-4.79,2.34,0,4.43.36,6.28,1.08,1.84.72,3.53,1.94,5.06,3.64l6.21-6.61c-2.25-2.43-4.68-4.21-7.29-5.33-2.61-1.12-5.49-1.69-8.64-1.69-6.84,0-12.22,2.34-16.13,7.02-3.91,4.68-5.87,11.03-5.87,19.03l3.91,1.75c0-6.21,1.53-10.91,4.59-14.11Z"/>
  <path id="e" class="cls-4" d="M516.5,101.9c4.36-1.93,8.03-4.66,11-8.17l-6.07-6.21c-2.25,2.79-4.99,4.88-8.23,6.28-3.24,1.4-6.8,2.09-10.66,2.09-4.77,0-8.98-1.03-12.62-3.1-3.64-2.07-6.48-4.95-8.5-8.64-2.02-3.69-3.04-7.96-3.04-12.82s.97-9.07,2.9-12.62c1.93-3.55,4.61-6.32,8.03-8.3,3.42-1.98,7.42-2.97,12.01-2.97s8.17.92,11.27,2.77c3.1,1.85,5.49,4.45,7.15,7.83,1.66,3.37,2.45,7.4,2.36,12.08l3.37-2.97h-49.81v8.1h54.94c.27-1.26.45-2.36.54-3.31.09-.94.13-1.78.13-2.5,0-6.03-1.28-11.36-3.85-16-2.56-4.63-6.07-8.26-10.53-10.87-4.45-2.61-9.56-3.91-15.32-3.91-6.12,0-11.66,1.44-16.6,4.32-4.95,2.88-8.87,6.82-11.74,11.81-2.88,4.99-4.32,10.6-4.32,16.81s1.46,11.97,4.39,17.01c2.92,5.04,6.91,9,11.95,11.88,5.04,2.88,10.75,4.32,17.14,4.32,5.04,0,9.74-.97,14.11-2.9Z"/>
  <path id="w" class="cls-4" d="M397.91,103.45l19.44-51.97h-4.05l19.57,51.97h5.53l24.57-63.45h-9.99l-19.17,52.65,3.51.13-19.17-52.78h-5.53l-19.17,52.78,3.51-.13-19.3-52.65h-9.85l24.43,63.45h5.67Z"/>
  <path id="i" class="cls-4" d="M356.46,103.45v-63.45h-9.58v63.45h9.58ZM356.39,24.28c1.21-1.3,1.82-2.86,1.82-4.66,0-1.89-.61-3.46-1.82-4.72-1.21-1.26-2.81-1.89-4.79-1.89-1.8,0-3.33.63-4.59,1.89s-1.89,2.83-1.89,4.72.63,3.35,1.89,4.66c1.26,1.31,2.79,1.96,4.59,1.96,1.98,0,3.58-.65,4.79-1.96Z"/>
  <path id="n" class="cls-4" d="M329.19,103.45v-38.88c0-4.68-1.06-9-3.17-12.96-2.12-3.96-5.06-7.11-8.84-9.45-3.78-2.34-8.1-3.51-12.96-3.51s-9.34,1.08-13.16,3.24c-3.83,2.16-6.86,5.13-9.11,8.91-2.25,3.78-3.37,8.06-3.37,12.82l4.32,2.43c0-3.6.81-6.79,2.43-9.58,1.62-2.79,3.82-4.99,6.61-6.61,2.79-1.62,6.03-2.43,9.72-2.43,5.4,0,9.74,1.73,13.03,5.2,3.28,3.47,4.93,7.99,4.93,13.57v37.26h9.58ZM282.89,103.45v-63.45h-9.45v63.45h9.45Z"/>
  <path id="E" class="cls-4" d="M206.07,103.45V10.57h-9.85v92.88h9.85ZM257.37,103.45v-9.04h-54.67v9.04h54.67ZM253.05,60.25v-8.77h-50.35v8.77h50.35ZM256.56,19.62v-9.04h-53.86v9.04h53.86Z"/>
  <path id="_x33_" class="cls-2" d="M78.18,0c31.6,0,57.21,25.61,57.21,57.21s-25.61,57.21-57.21,57.21-57.21-25.61-57.21-57.21S46.58,0,78.18,0Z"/>
  <path id="_x32_" class="cls-1" d="M62.73,4.72c28.99,0,52.48,23.5,52.48,52.48s-23.5,52.48-52.48,52.48S10.25,86.19,10.25,57.21,33.75,4.72,62.73,4.72Z"/>
  <path id="_x31_" class="cls-3" d="M47.24,9.97c26.09,0,47.24,21.15,47.24,47.24s-21.15,47.24-47.24,47.24S0,83.3,0,57.21,21.15,9.97,47.24,9.97Z"/>
</svg>