<?xml version="1.0" encoding="UTF-8"?>
<svg id="isotipo" xmlns="http://www.w3.org/2000/svg" viewBox="0 0 541.55 457.67">
  <path id="_x33_" d="M312.72,0c126.38,0,228.83,102.45,228.83,228.83s-102.45,228.83-228.83,228.83-228.83-102.45-228.83-228.83S186.34,0,312.72,0Z" style="fill: #0076bf; fill-rule: evenodd;"/>
  <path id="_x32_" d="M250.93,18.89c115.95,0,209.94,93.99,209.94,209.94s-93.99,209.94-209.94,209.94S40.99,344.78,40.99,228.83,134.99,18.89,250.93,18.89Z" style="fill: #00b0f2; fill-rule: evenodd;"/>
  <path id="_x31_" d="M188.94,39.89c104.35,0,188.94,84.59,188.94,188.94s-84.59,188.94-188.94,188.94S0,333.18,0,228.83,84.59,39.89,188.94,39.89Z" style="fill: #00e2e7; fill-rule: evenodd;"/>
</svg>